# xmcd
#
# Track frame offsets: 
#        150
#        19525
#        38440
#        63950
#        73662
#        93600
#        121915
#        158570
#
# Disc length: 2450 seconds
#
# Revision: 1
# Processed by: cddbd v1.5.2PL0 Copyright (c) Steve Scherf et al.
# Submitted via: ExactAudioCopyFreeDBPlugin 1.0
#
DISCID=59099008
DTITLE=한영애 - Live 아.우.성-CD2
DYEAR=2014
DGENRE=K-pop
TTITLE0=말이 안돼
TTITLE1=코뿔소
TTITLE2=루씰
TTITLE3=여인#3
TTITLE4=누구없소
TTITLE5=이별 못한 이별
TTITLE6=조율
TTITLE7=여울목
EXTD=
EXTT0=
EXTT1=
EXTT2=
EXTT3=
EXTT4=
EXTT5=
EXTT6=
EXTT7=
PLAYORDER=
